<svg xmlns="http://www.w3.org/2000/svg" viewBox="0 0 48 48" id="appointment"><g><path d="M4,20C4,12.46,4,8.69,6.34,6.34S12.46,4,20,4h8c7.54,0,11.31,0,13.66,2.34S44,12.46,44,20v8c0,7.54,0,11.31-2.34,13.66S35.54,44,28,44H20c-7.54,0-11.31,0-13.66-2.34S4,35.54,4,28Z"></path><path fill="#fff" d="M31.5,15.25H28.75V15a.75.75,0,0,0-1.5,0v.25h-6.5V15a.75.75,0,0,0-1.5,0v.25H16.5a2.25,2.25,0,0,0-2.25,2.25v14a2.25,2.25,0,0,0,2.25,2.25h15a2.25,2.25,0,0,0,2.25-2.25v-14A2.25,2.25,0,0,0,31.5,15.25Zm.75,16.25a.76.76,0,0,1-.75.75h-15a.76.76,0,0,1-.75-.75V22.75h16.5Zm0-10.25H15.75V17.5a.76.76,0,0,1,.75-.75h2.75V17a.75.75,0,0,0,1.5,0v-.25h6.5V17a.75.75,0,0,0,1.5,0v-.25H31.5a.76.76,0,0,1,.75.75ZM20.47,27A.75.75,0,0,1,21.53,26L23,27.44,25.47,25A.75.75,0,0,1,26.53,26l-3,3a.75.75,0,0,1-1.06,0Z"></path></g></svg>